<?xml version="1.0" encoding="UTF-8"?>
<svg width="136px" height="20px" viewBox="0 0 136 20" version="1.1" xmlns="http://www.w3.org/2000/svg" xmlns:xlink="http://www.w3.org/1999/xlink">
    <!-- Generator: Sketch 52.6 (67491) - http://www.bohemiancoding.com/sketch -->
    <title>logo / text</title>
    <desc>Created with Sketch.</desc>
    <defs>
        <path d="M52.0103691,9.90211325 L52.0115365,9.90211325 C51.9969125,10.4211059 51.9247724,10.9368584 51.7964464,11.439862 C51.7964464,11.6016841 51.4733734,11.709663 51.4733734,12.7078097 C51.4733734,12.8427102 51.5542146,13.0583754 51.5542146,13.3012549 C51.5542146,13.8949927 51.0437768,14.5692026 50.5327554,15.2978409 C50.0288756,16.4474897 49.1580499,17.396512 48.0573219,17.9955584 C47.6268498,18.3194952 45.1514163,19.9921445 42.1646695,19.9921445 C41.4317637,19.9815839 40.7052115,19.8540603 40.012309,19.6143645 C38.7206009,19.6143645 37.9404979,19.0747625 36.944721,18.8049615 C36.1377682,18.4014305 35.68103,17.8337364 34.9806009,17.3479775 C35.0077425,17.3210559 33.2050129,16.0531082 32.6936996,14.8390036 C32.5860086,14.6233384 32.5860086,14.2186369 32.424618,13.9488358 C31.7840036,13.1983786 31.4394564,12.2387903 31.4559828,11.2511183 C31.4559828,10.9813173 31.5096824,10.7384379 31.5096824,10.4686369 C31.5096824,10.1988358 31.3751416,10.0639353 31.3751416,9.73999854 C31.3751416,7.0964168 32.2900773,6.28701376 32.8013906,4.85724396 C33.0704721,4.07476249 33.8237253,3.42718153 34.3350386,2.91479371 C34.582139,2.53204368 34.9021898,2.2019883 35.276824,1.94356858 C35.463897,1.75453229 35.6789871,1.78145387 35.9480687,1.70068914 C36.2258238,1.61338391 36.4762207,1.45528262 36.6747639,1.24185184 C37.1852017,0.810521368 38.5303176,0.432741423 39.4181116,0.378605644 C39.5526524,0.378605644 39.6603433,0.405819847 39.7948841,0.405819847 C40.5212876,0.405819847 41.1939914,0.00111832486 42.1357768,0.00111832486 C42.3782213,-0.00336271376 42.6207273,0.0056249118 42.8621803,0.0280399011 C43.1312618,0.0280399011 44.3958283,0.513506152 45.6872446,0.648406659 C46.7907124,0.783307166 47.7861974,1.8894328 48.6202918,2.45624903 C48.9162232,2.75297162 49.8842747,3.3464168 50.2344893,3.88601883 C50.2616309,3.91294041 51.0685837,5.01906604 51.0685837,5.85539066 C51.0845303,6.52776421 51.2403979,7.18938129 51.5261974,7.79784092 C51.7681373,8.79598762 52.0103691,9.36251122 52.0103691,9.90211325 Z M35.1670901,10.6854726 L35.1670901,10.6845947 C35.1670901,11.4129404 35.7315193,12.2223435 36.0817339,13.0317465 C36.0280343,12.9234749 36.1357253,13.7600922 36.6738884,14.3804589 C37.8847554,15.6206072 38.5577511,15.8105214 39.9294249,16.3229092 C40.7095279,16.4847313 41.6784549,16.8086681 42.7816309,16.8086681 C43.1798035,16.7857106 43.5711003,16.6944543 43.9385064,16.5388671 C45.0148326,15.999265 45.848927,15.5135062 46.4676395,14.7582389 C47.4622489,13.2746259 48.1626781,12.8157886 48.1626781,9.79413432 C48.1626781,9.47049015 48.055279,8.95810233 48.055279,8.49926503 C47.7848997,7.68738082 47.4613165,6.89429573 47.0866438,6.12519168 C46.6827296,5.55837545 46.5219227,4.96493026 44.4498197,3.96678356 C43.6425751,3.59017412 43.1581116,2.94259316 42.1626266,2.94259316 C41.1939914,2.94259316 40.6289785,3.34729468 39.0953305,3.72507463 C38.8262489,3.77891778 37.5348326,4.04871879 36.8084292,5.181766 C36.7569126,5.39493307 36.665611,5.59639332 36.5393476,5.77550381 C36.1625751,6.12606955 36.0011845,6.63875001 35.7589528,7.0703731 C35.4909211,7.56858811 35.3434633,8.12300831 35.3284807,8.68888657 C35.3284807,8.8773376 35.3553305,9.03974493 35.3553305,9.22848859 C35.3553305,9.71424747 35.1670901,10.1727921 35.1670901,10.6854726 Z M20.1256652,18.6156326 L20.1256652,18.6153399 C20.1256652,18.8310052 19.9911245,18.9931199 19.9911245,19.2087851 C19.9869387,19.2554058 19.9962617,19.3022472 20.0179742,19.3436856 C19.9102833,19.6404082 19.8297339,19.7753087 19.5066609,19.7753087 C19.3452704,19.7753087 19.2107296,19.7214656 19.0493391,19.7214656 C18.8602232,19.7214656 18.6179914,19.8025229 18.3489099,19.8025229 C17.0300601,19.8025229 16.2768069,19.6404082 16.2768069,17.9139158 C16.3081191,17.7356452 16.3260692,17.5552732 16.3305064,17.3743138 L16.3305064,17.050377 C16.3305064,16.2681882 16.4921888,15.4859993 16.4921888,14.5144816 C16.4921888,13.8133501 16.3844979,13.1128038 16.3844979,12.4105019 C16.3844979,12.1676224 16.4921888,11.924743 16.4921888,11.6008062 L16.4921888,9.38884755 C16.4369177,9.38460936 16.3814447,9.39384613 16.3305064,9.41576912 L16.3305064,9.33471177 C16.3039485,9.33471177 16.3039485,9.36192597 16.3039485,9.38884755 C16.1198872,9.62172103 15.9491741,9.86489502 15.7926352,10.1171932 C15.551279,10.3600727 15.1199313,10.7916958 14.8508498,12.1134866 C14.5839434,12.7158985 14.2499962,13.2861378 13.8553648,13.8133501 C13.1716207,14.5609974 12.633262,15.4301926 12.2680172,16.3761671 C11.9749911,17.1481224 11.642628,17.9044828 11.2722403,18.6422615 C10.9768927,19.0738846 11.0845837,19.9105019 9.90056652,19.9105019 C9.0664721,19.9105019 8.7168412,18.3996747 8.60915021,18.1567953 C8.42196549,17.8065983 8.20603255,17.4726321 7.96358798,17.1583559 C7.27161244,16.0575936 6.65140938,14.9130833 6.10686695,13.7320001 C5.91862661,12.9767328 4.78860086,11.1694757 4.70775966,11.0614968 C4.43955365,10.4139158 4.11677253,9.60509804 3.68630043,9.25394704 C3.60545923,10.3059369 3.57860944,11.5738846 3.57860944,12.4912666 C3.57860944,13.0296981 3.65945064,13.6243138 3.65945064,14.0831511 C3.65945064,15.135141 3.55146781,16.1063661 3.55146781,17.2666275 C3.55146781,17.9139158 3.57860944,18.5612042 3.57860944,19.2087851 C3.57860944,19.9374234 1.88357082,19.6404082 1.34540773,19.7483872 C1.20798424,19.8012437 1.06212208,19.8286102 0.914935622,19.8291519 C0.518581133,19.8405825 0.169364866,19.5697002 0.0808412017,19.1821562 C0.0808412017,19.1008062 0.107690987,19.0200415 0.107690987,18.8582194 C0.107690987,18.4263037 0,18.0757379 0,17.6710364 C0,15.674743 0.188532189,15.296963 0.188532189,13.5704706 C0.188532189,12.5181882 0.403622318,11.8436856 0.457321888,11.0345752 C0.457321888,10.926011 0.430472103,10.8180321 0.430472103,10.6834242 C0.430472103,10.3580243 0.484463519,10.0361359 0.484463519,9.68498489 C0.484463519,8.74068134 0.29593133,8.0661788 0.29593133,6.77130951 C0.29593133,5.42523069 0.53816309,3.8052541 0.53816309,2.64528532 C0.53816309,2.21336959 0.430472103,1.88972543 0.430472103,1.40425918 C0.430472103,0.973513955 0.484463519,0.271211965 1.10317597,0.271211965 C1.23771674,0.271211965 1.42595708,0.351976694 1.61448927,0.351976694 C1.69503863,0.351976694 1.77587983,0.325055118 1.85642918,0.325055118 C2.58312446,0.325055118 2.63682403,1.08032238 2.79821459,1.24214447 C2.959897,1.56578863 3.22897854,1.70185964 3.44406867,2.72605005 C3.84681545,3.10353737 4.57409442,4.45283506 4.54724464,4.37177771 C4.89687554,5.07173869 5.59642918,5.85422016 5.97320172,6.77130951 C6.12583249,7.44539318 6.45034069,8.06821523 6.91498712,8.57885925 C7.37230901,8.98414603 7.88362232,10.116608 8.01816309,10.3594874 C8.41259249,11.1085963 8.87156335,11.8217075 9.38983691,12.4906813 C9.73946781,12.9495186 9.82030901,13.5698854 10.1430901,14.0553516 C10.2776309,13.8396864 10.3584721,13.5698854 10.5198627,13.3000844 C11.8384206,11.9780009 12.3228841,10.116608 12.5919657,9.65806331 C13.1838283,8.57885925 14.0179227,7.68839886 14.3407039,6.79823108 C14.6402535,5.9893946 15.0187671,5.21221001 15.4707296,4.47800088 C15.7938026,3.61475469 16.7624378,2.53584326 16.7624378,2.34680697 C17.3543004,1.15991661 16.9238283,0.188691481 18.1615451,0.188691481 C18.3055697,0.193193233 18.449697,0.184081583 18.5920172,0.161477279 C19.2104378,0.161477279 19.5606524,0.594563506 19.5606524,1.21493026 C19.5606524,2.26721275 19.4261116,3.48102468 19.4261116,4.47917139 C19.4261116,5.66606175 19.6143519,6.82603054 19.7220429,7.93215617 C19.8149374,9.0447697 19.8419318,10.1619285 19.8028841,11.2777473 C19.8028841,11.628313 19.7757425,12.0058003 19.7757425,12.3835803 C19.7757425,13.0586681 19.9911245,13.7595069 19.9911245,14.4340095 C19.9911245,15.2703341 19.7757425,16.1066587 19.8297339,16.5652034 C19.8828975,16.7594603 19.918837,16.9580477 19.937133,17.1586486 C19.937133,17.4018206 19.9102833,17.6174859 19.9102833,17.8331511 C19.9102833,18.0760305 20.1256652,18.2644816 20.1256652,18.6156326 Z M79.9399828,18.6156326 L79.9405665,18.6135842 C80.1019571,18.6943489 80.5055794,18.8564636 80.5055794,19.2611651 C80.5055794,19.773553 79.456103,19.6658667 79.2410129,19.6658667 C78.2186781,19.6658667 77.572824,19.4768304 76.92697,19.4768304 C76.8729785,19.4768304 76.7924292,19.503752 76.7384378,19.503752 C76.4040902,19.4859859 76.1103142,19.275536 75.9851845,18.9641499 C75.6055124,18.6945948 75.2539964,18.3872376 74.936,18.046768 C74.6934764,17.8041811 74.3438455,17.6154375 74.1016137,17.3997722 C72.5142661,16.0229677 72.3260258,15.5650083 71.4110901,14.6476263 C70.8826267,13.8667149 70.2061291,13.1976554 69.4201202,12.6785471 C68.789336,12.3472108 68.2664375,11.8415992 67.9133219,11.2215631 L67.9133219,11.3026205 C67.9133219,11.6262646 68.0210129,12.0848093 68.0210129,12.6244113 C68.0210129,12.8403692 67.9673133,13.0291129 67.9673133,13.2719923 C67.9673133,13.3796786 67.9938712,13.4876575 67.9938712,13.5956365 C67.9938712,13.7574586 67.9401717,13.9192806 67.9401717,14.0813953 C67.9401717,14.53994 68.0210129,14.9715631 68.0210129,15.5108725 C68.0210129,15.7280009 68.128412,16.2395108 68.128412,16.7521913 C68.036297,17.2236378 67.9824212,17.7017914 67.9673133,18.1819611 C67.9673133,18.4786837 68.0747124,18.7754063 68.0747124,19.0990504 C68.0747124,19.6658667 66.9715365,19.6386525 66.460515,19.6386525 C66.1642918,19.6386525 65.9760515,19.6117309 65.7338197,19.6117309 C65.5730129,19.6117309 65.4110386,19.6927882 65.2227983,19.6927882 C64.3887039,19.6927882 64.2810129,19.0182857 64.2810129,17.8852385 C64.2810129,17.5885159 64.4424034,16.7252697 64.4424034,15.7540446 C64.4424034,15.3221289 64.4155536,14.9171347 64.4155536,14.5127258 C64.4155536,14.1083169 64.4692532,13.6766938 64.4692532,13.2719923 C64.4692532,12.5451097 64.4424034,11.8688515 64.4424034,11.1405058 C64.4424034,10.1962022 64.4963948,9.62997123 64.4963948,9.03623342 C64.4963948,8.65845348 64.3887039,8.28125879 64.3887039,7.93010779 C64.3887039,6.85119636 64.4963948,5.87967861 64.4963948,4.9087461 C64.4963948,4.69278824 64.4155536,4.50404458 64.4155536,4.26116514 C64.4155536,3.34378317 64.603794,2.61543748 64.603794,2.0219923 C64.603794,1.59124708 64.4424034,1.29364661 64.4424034,0.88894509 C64.4424034,0.376264638 64.7383348,0.349343061 65.1688069,0.349343061 C65.3841888,0.349343061 65.599279,0.40347884 65.8146609,0.40347884 C66.2719828,0.40347884 66.8372876,0.322421485 67.2137682,0.322421485 C67.5633991,0.322421485 67.9673133,0.43010779 67.9673133,0.807887736 C67.9673133,1.0238456 67.9133219,1.26672504 67.9133219,1.48239027 C67.9133219,1.75219129 67.9673133,2.0219923 67.9673133,2.31871489 L67.9673133,2.77755219 C67.9673133,3.31715422 68.0210129,3.85646362 68.0210129,4.39606565 C68.0210129,5.2054687 67.8864721,5.90689281 67.8864721,6.66216007 C67.8864721,7.2017621 67.9401717,7.76828571 67.9401717,8.30788774 C67.9401717,8.68537506 67.8593305,9.063155 67.8593305,9.44093495 L67.8593305,9.57583545 C68.0210129,9.57583545 68.3706438,8.98239027 68.5051845,8.79335399 C68.6937167,8.49809452 69.0701974,8.39011559 69.2584378,8.12031458 C69.9503705,7.17173767 70.7150906,6.27876039 71.5456309,5.44951864 C72.35409,4.34171744 73.254108,3.30411042 74.2361545,2.34768485 C75.716103,0.48629195 75.8774936,0.405527221 77.2766009,0.405527221 C77.7610644,0.405527221 78.1375451,0.513213526 78.6220086,0.513213526 C78.8373906,0.513213526 78.9984893,0.459370373 79.1601717,0.459370373 C79.5906438,0.459370373 79.7788841,0.540135102 79.7788841,0.917915047 C79.7788841,1.24126659 79.4286695,1.24126659 79.0784549,1.59241758 C78.5405837,2.15747806 78.2180944,2.67162164 77.7067811,3.21093104 C76.8899303,4.05282066 76.1260598,4.94480579 75.419588,5.88172699 C75.0696652,6.34056429 73.8319485,7.58159043 72.6213734,9.03828181 C72.1372017,9.60480541 71.8141288,10.089979 71.3568069,10.44113 C71.9486695,10.9538105 72.2983004,11.2505331 72.9173047,11.8439783 C73.4639481,12.5320357 74.0767576,13.1645182 74.7468841,13.7322927 C75.1776481,14.1372869 75.8500601,15.0543762 76.8455451,15.8099361 C77.1954678,16.1605019 77.9209957,17.1314344 78.6214249,17.4825854 C78.7291159,17.5914422 79.6437597,18.0488163 79.9399828,18.6156326 Z M105.985734,13.3015475 C106.147124,13.7331706 105.930575,14.0032642 105.931742,14.704981 C105.931742,16.0001429 105.393871,16.5666665 105.178489,17.1870333 C105.042781,17.5378916 104.452086,18.2662373 104.021322,18.4280594 C103.526625,18.6343426 103.057183,18.8968886 102.622215,19.2105409 C102.164893,19.4803419 101.78812,19.4534203 101.33109,19.5883208 C100.881538,19.7597226 100.410701,19.8686148 99.931691,19.911965 C99.3395365,19.911965 98.5862833,19.6690856 98.156103,19.6690856 C97.0256431,19.6352885 95.9117116,19.3877812 94.8728412,18.9395694 C94.1461459,18.6966899 92.9084292,18.6425541 92.9084292,17.9680516 C92.9084292,17.0787617 93.5274335,16.5113602 93.5274335,16.3764597 C93.5817167,16.1613797 93.5274335,15.7019572 93.8776481,15.4590777 C93.8606445,15.345105 93.8965778,15.2295954 93.9751894,15.1455265 C94.053801,15.0614576 94.166451,15.0180687 94.2809785,15.0277473 C94.6568755,15.0277473 95.1959142,15.5670567 95.3573047,15.6753282 C95.5194924,15.7790323 95.6724955,15.8965146 95.8146266,16.0264792 C97.3754163,16.5116529 98.668,16.8628038 99.6894592,16.8628038 C100.472149,16.8407503 101.226911,16.56636 101.84182,16.0803224 C102.218592,15.8105214 102.595365,15.189862 102.595365,14.920061 C102.595365,13.2207828 102.24515,13.3826049 101.86867,13.0051175 C101.276807,12.6811808 101.034575,12.3034008 100.415863,12.0605214 C99.7700086,11.8179346 99.3126867,11.4401546 98.8013734,11.3052541 C97.1331845,10.9274742 95.7340773,10.3071074 94.9536824,9.14684599 C93.9853391,7.95995562 93.6085665,7.85256195 93.3931845,5.77491856 C93.3477447,5.48946087 93.3297622,5.20028611 93.339485,4.91137974 C93.5008755,4.02091934 93.904206,3.77833253 94.4426609,2.69912847 C95.0076738,1.59329546 96.4067811,0.999557654 96.6218712,0.864657147 C97.3342885,0.419042943 98.1505329,0.167956488 98.9896137,0.136311458 C99.6623176,0.136311458 100.09279,0.0552541032 100.604103,0.163233034 C102.110609,0.513798777 102.24515,0.513798777 102.379691,0.54101298 C103.012895,0.629205551 103.629557,0.811050254 104.209562,1.08061501 C104.666884,1.24214447 105.097356,1.37704497 105.097356,1.97078278 C105.097356,2.34856273 104.613185,2.99585106 104.559193,3.13075157 C104.559193,3.64343202 104.424652,4.42562086 103.83279,4.42562086 C103.160086,4.42562086 103.052687,3.85938988 102.514232,3.85938988 C101.465339,3.77833253 100.846043,3.31978785 99.6354678,3.31978785 C97.8058884,3.31978785 97.6981974,4.02091934 97.5905064,4.2368772 C97.4559657,4.53359979 97.0791931,4.83032238 97.0791931,5.31608126 C97.0851125,5.82478074 97.1855699,6.32791488 97.3754163,6.79969421 C97.5380717,6.91774253 97.6677172,7.07574841 97.751897,7.25853151 C98.5054421,7.58217568 99.4472275,7.74399776 100.06594,8.12177771 C100.587052,8.44163689 101.136495,8.71258713 101.707279,8.93118075 C102.505672,9.32441928 103.24776,9.82341973 103.913631,10.4147937 C105.178489,11.413233 105.797202,12.0335998 105.985734,13.3015475 Z M128.479725,12.9779033 L128.479725,12.9784886 C128.866151,12.9682156 129.252809,12.9863091 129.636601,13.0326244 C129.441004,12.7019006 129.287281,12.3480219 129.178987,11.9791714 C129.044738,11.5753477 128.829356,11.1425541 128.748807,10.8730458 C128.210644,10.3334437 127.833871,9.14626074 127.56479,8.41791505 C127.457099,8.12119246 127.026627,6.79940159 126.730987,6.502679 L126.596155,6.85382999 C126.300223,8.31081399 125.520412,9.06725176 125.170197,10.0914422 C124.847416,11.0085315 124.309253,11.9256209 124.040172,13.0051175 C124.456548,12.9243424 124.881481,12.8970063 125.304738,12.9237676 C125.466129,12.9237676 125.627811,12.9779033 125.842901,12.9779033 C125.950592,12.9779033 126.057991,12.9509818 126.165682,12.9509818 C126.623296,12.9779033 127.107468,12.9779033 127.56479,12.9779033 L128.479725,12.9779033 Z M135.852034,18.7517036 L135.852326,18.751411 C135.888876,18.8567296 135.915836,18.9651516 135.932876,19.0753477 C135.932876,19.4531277 135.556395,19.3989919 135.152773,19.4531277 C133.861064,19.4531277 133.538283,19.3989919 132.946421,19.3989919 C132.273717,19.3989919 131.897236,18.454981 131.762403,17.8343216 C131.574455,16.997997 131.197682,16.8361749 130.82091,15.7031277 C130.444137,15.6762061 129.825133,15.7569708 129.610043,15.7569708 C129.206421,15.7569708 128.775948,15.7838924 128.399468,15.7838924 C127.215451,15.7838924 126.489047,15.5682272 124.874558,15.5682272 C124.417236,15.5682272 123.501133,15.7300493 122.829888,15.7300493 C122.78455,15.7237513 122.739624,15.7147616 122.695348,15.7031277 C122.345133,16.1891792 122.130043,17.0249186 121.941803,17.5645206 C121.860961,17.7532642 121.295948,19.3720703 120.730936,19.3720703 C119.654901,19.3720703 119.170438,19.560814 118.336343,19.560814 C117.964135,19.5399352 117.659231,19.2568171 117.60994,18.8863115 C117.692437,18.5799967 117.839198,18.2948684 118.040412,18.0499868 C118.336343,17.8600727 118.417185,17.5089217 118.605425,16.9965339 C118.659416,16.7536544 119.331828,16.0253087 119.708309,14.5144816 C119.984888,13.5109376 120.354314,12.5354789 120.811777,11.6008062 C121.080567,10.6837168 121.780412,9.90123538 122.022352,9.25365442 C122.722197,8.20166456 123.071828,7.17659628 123.448601,6.28613588 C123.611159,5.61163335 124.041923,5.42288969 124.499245,4.53272191 C124.713751,3.96590568 125.171948,3.72331887 125.41418,2.64411481 C125.495021,2.29325644 125.817803,1.78057599 125.817803,1.48414603 C125.870627,1.34836764 126.193408,0.32417724 126.839262,0.32417724 C127.619657,0.32417724 127.457974,0.971465574 127.996429,2.05066963 C127.969288,2.07759121 129.153305,4.2357067 129.745167,5.47673284 C130.014179,6.25455507 130.337568,7.01238526 130.712927,7.74458301 C131.27794,8.55398606 131.492446,9.87460642 132.192876,10.9280594 C132.878577,12.0743583 133.42937,13.2965307 133.834215,14.5700805 C133.914764,14.974782 134.291536,15.4066977 134.426077,16.0539861 C134.548443,16.4987466 134.729427,16.9251555 134.96424,17.3219338 C135.071639,17.5648132 135.852034,18.2662373 135.852034,18.6709388 L135.852034,18.7517036 Z" id="path-1"></path>
    </defs>
    <g id="Mobile" stroke="none" stroke-width="1" fill="none" fill-rule="evenodd">
        <g id="Dashboard" transform="translate(-50.000000, -21.000000)">
            <g id="logo-/-text" transform="translate(50.000000, 21.000000)">
                <mask id="mask-2" fill="white">
                    <use xlink:href="#path-1"></use>
                </mask>
                <use id="Logo" fill="#FFFDFD" fill-rule="nonzero" xlink:href="#path-1"></use>
                <g id="Color-/-Black" mask="url(#mask-2)" fill="#1A1919" fill-rule="nonzero">
                    <rect id="Rectangle" x="0" y="0" width="136" height="20"></rect>
                </g>
            </g>
        </g>
    </g>
</svg>